<svg id="Ebene_1" data-name="Ebene 1" xmlns="http://www.w3.org/2000/svg" viewBox="0 0 696.2 228.19"><defs><style>.cls-1{fill:#fff;}.cls-2{fill:#005da8;}</style></defs><title>Zeichenfläche 1</title><path class="cls-1" d="M679.29,215.67l-1.43,3.83c-1.36,3.11-2.2,5.25-5.84,5.25a14.25,14.25,0,0,1-2.79-.32v3.44a10.49,10.49,0,0,0,3.11.32c5.13,0,6.49-1.62,8.82-7.26l14.52-38.59h-4.09L681.3,210.88l-11-28.54h-4.35Zm-63.62.13h4.09V197.13c.06-7,2.92-12.32,10-12.32,5.19,0,7.07,3.76,7,8.3v22.7h4.09V196.87c0-6.23,2-12.06,9.08-12.06,5.84,0,7.91,3,7.91,8.5v22.5h4.09V193.1c0-7.91-3.76-11.74-11.09-11.74a11.31,11.31,0,0,0-10.64,6.55c-1.23-4.41-5.19-6.55-9.6-6.55a11.68,11.68,0,0,0-11,6.61h-.2v-5.64h-3.76ZM584.4,196.74c.65-6.1,4.35-11.93,11-11.93s10.44,5.77,10.63,11.93Zm25.75,3.44c.33-9.41-4-18.81-14.72-18.81s-15.11,8.88-15.11,17.7c0,9.54,4.47,17.71,15.11,17.71,8.43,0,12.84-4.41,14.59-12h-4.09c-1.3,5.06-4.54,8.56-10.5,8.56-7.85,0-11-7.2-11-13.16Zm-35.92-20.72h-4.09v9.24H570c-1.75-4.8-6.62-7.33-11.61-7.33-10.18,0-15,8.24-15,17.7s4.86,17.71,15,17.71c4.87,0,10.18-3,11.93-7.33h.13v6.35h3.76Zm-26.79,19.61c0-6.94,3.18-14.26,11-14.26,8.69,0,11.74,7.33,11.74,14.26s-3,14.27-11.74,14.27C550.62,213.34,547.44,206,547.44,199.07Zm-32.62-6.48c.13-5.45,3.89-7.78,8.95-7.78,4.8,0,8.76,1.36,8.76,6.87,0,3.7-1.88,4.15-5.26,4.54-8.82,1-18,1.36-18,10.76,0,6.75,5.06,9.79,11.22,9.79,6.42,0,9.34-2.46,12.19-6.81h.13c0,3.5.65,5.84,4.8,5.84a11.52,11.52,0,0,0,2.66-.26v-3.44a3.93,3.93,0,0,1-1.3.26,2.18,2.18,0,0,1-2.4-2.46V192.13c0-9-6.41-10.76-12.32-10.76-7.65,0-13.16,3.37-13.56,11.22Zm17.71,10.25c.06,6.55-5.46,10.5-11.68,10.5-3.83,0-7.46-2.53-7.46-6.61,0-6.55,8.63-6.49,15.57-7.72,1.1-.2,2.92-.52,3.44-1.49h.13Zm-27.37-10c-.91-7.65-6.42-11.47-13.55-11.47-10.25,0-15.83,8.11-15.83,17.7s5.58,17.71,15.83,17.71c7.46,0,12.71-4.93,13.81-13h-4.09c-.52,5.58-4.67,9.53-9.73,9.53-7.85,0-11.74-7.13-11.74-14.27s3.89-14.26,11.74-14.26c5.32,0,8.37,3,9.47,8Zm-57.65-.26c.13-5.45,3.89-7.78,8.95-7.78,4.8,0,8.76,1.36,8.76,6.87,0,3.7-1.88,4.15-5.26,4.54-8.82,1-18,1.36-18,10.76,0,6.75,5.06,9.79,11.22,9.79,6.42,0,9.34-2.46,12.19-6.81h.13c0,3.5.65,5.84,4.8,5.84a11.5,11.5,0,0,0,2.66-.26v-3.44a3.93,3.93,0,0,1-1.3.26,2.17,2.17,0,0,1-2.39-2.46V192.13c0-9-6.42-10.76-12.33-10.76-7.65,0-13.16,3.37-13.56,11.22Zm17.7,10.25c.07,6.55-5.45,10.5-11.68,10.5-3.83,0-7.46-2.53-7.46-6.61,0-6.55,8.63-6.49,15.56-7.72,1.11-.2,2.92-.52,3.44-1.49h.13Z"/><polygon class="cls-2" points="106.32 162.8 91.41 150.05 146.86 85.17 196.57 127.62 166.48 162.84 106.32 162.8"/><polygon class="cls-1" points="135.64 76.25 99.31 45.91 43.3 109.68 79.28 139.66 135.64 76.25"/><polygon class="cls-1" points="185.17 162.07 206.51 136.5 238.91 162.11 185.17 162.07"/><polygon class="cls-1" points="244.74 69.92 196.64 29.95 154.54 76.97 202.64 118.01 244.74 69.92"/><polygon class="cls-1" points="0 162.71 34.93 121.83 68.33 149.19 55.51 161.97 0 162.71"/><rect class="cls-2" x="303.2" y="47.88" width="37" height="11"/><rect class="cls-2" x="303.2" y="81.88" width="37" height="11"/><rect class="cls-2" x="303.2" y="64.88" width="37" height="11"/><path class="cls-2" d="M390.2,67.33v8.55h37V67.55c0-.87.38-1.67.35-2.67h-37C390.57,65.88,390.2,66.53,390.2,67.33Z"/><path class="cls-2" d="M340.2,40.88v-10h21.56a25.09,25.09,0,0,1,20.69,10.05c0,.05.08-.05.12-.05h40.16a67.71,67.71,0,0,0-14-20.62C396.11,8.07,380.47,1.88,361.76,1.88H303.2v39Z"/><rect class="cls-2" x="303.2" y="99.88" width="37" height="11"/><path class="cls-2" d="M386.54,47.88a37,37,0,0,1,3.37,11H427.1a55.63,55.63,0,0,0-2.15-11Z"/><path class="cls-2" d="M386.11,116.88a35.91,35.91,0,0,1-3.66,5.72q-8.13,10.26-20.69,10.28H340.2v-16h-37v44h58.56c18.71,0,34.35-5.9,46.95-18.05a59,59,0,0,0,16-25.95Z"/><path class="cls-2" d="M427.53,99.88h-37a53.9,53.9,0,0,1-1.84,11h37.62A78.82,78.82,0,0,0,427.53,99.88Z"/><rect class="cls-2" x="390.2" y="81.88" width="37" height="11"/><path class="cls-2" d="M446.71,64.88s-.51.28-.51.37V75.88h37V65a3.12,3.12,0,0,1,.41-.16Z"/><path class="cls-2" d="M488.64,40.88a23.06,23.06,0,0,1,1.62-2.57c4.44-6.66,10.81-9.92,19.11-9.92,9.46,0,16.27,2,20.42,6.22a25.4,25.4,0,0,1,4,6.27h37.43c-2.06-11-7.07-20.09-15-26.87-11-9.39-26.62-14-46.78-14-18.85,0-34,5.91-45.47,18a65.38,65.38,0,0,0-13.65,22.92Z"/><path class="cls-2" d="M535.79,108.68c0,.75,0,1.2-.05,2.2h36.2c0-1,0-1.45,0-2.19l0-8.81H535.79S535.79,108.47,535.79,108.68Z"/><path class="cls-2" d="M536,55.13c0,.26,0,3.24,0,3.5l36.22-.07,0-3.28a70.61,70.61,0,0,0-.24-7.39h-36.6A46.51,46.51,0,0,1,536,55.13Z"/><path class="cls-2" d="M447.54,110.88h37.2a65,65,0,0,1-1.13-11h-36.9A87.64,87.64,0,0,0,447.54,110.88Z"/><path class="cls-2" d="M535.12,116.88c-.85,5-2.5,9.22-5,12-3.75,4.22-9.84,6.35-18.29,6.35-9.1,0-16.09-3.38-21-10.08a35,35,0,0,1-4.37-8.26H448.77a60.45,60.45,0,0,0,15.79,28.69q17.85,18,47.33,18,28.93,0,44.71-14.06c8.79-7.81,13.8-18.66,15-32.66Z"/><rect class="cls-2" x="446.2" y="81.88" width="37" height="11"/><path class="cls-2" d="M448.52,47.88a65.61,65.61,0,0,0-1.57,11h36.94a48.34,48.34,0,0,1,2.1-11Z"/><rect class="cls-2" x="592.2" y="81.88" width="93" height="11"/><rect class="cls-2" x="592.2" y="99.88" width="37" height="11"/><rect class="cls-2" x="592.2" y="64.88" width="93" height="11"/><polygon class="cls-2" points="629.2 116.88 592.2 116.88 592.2 160.88 696.2 160.88 696.2 132.88 629.2 132.88 629.2 116.88"/><rect class="cls-2" x="592.2" y="47.88" width="37" height="11"/><polygon class="cls-2" points="592.2 1.88 592.2 40.88 629.2 40.88 629.2 30.88 696.2 30.88 696.2 1.88 592.2 1.88"/></svg>