<svg id="Ebene_1" data-name="Ebene 1" xmlns="http://www.w3.org/2000/svg" viewBox="0 0 400.82 361.34"><defs><style>.cls-1{fill:#fff;}.cls-2{fill:#dadada;}.cls-3{fill:#d2a73e;}</style></defs><path class="cls-1" d="M125.89,358.43a48.45,48.45,0,0,1-41.83-24.15L9.46,205.08a48.44,48.44,0,0,1,0-48.3l74.6-129.2A48.43,48.43,0,0,1,125.89,3.43H275.07A48.42,48.42,0,0,1,316.9,27.58l74.6,129.2a48.44,48.44,0,0,1,0,48.3l-74.6,129.2a48.44,48.44,0,0,1-41.83,24.15Z"/><path class="cls-2" d="M275.07,3.93a47.93,47.93,0,0,1,41.4,23.9L391.06,157a47.89,47.89,0,0,1,0,47.8L316.47,334a47.93,47.93,0,0,1-41.4,23.9H125.89A47.93,47.93,0,0,1,84.49,334L9.9,204.83a47.94,47.94,0,0,1,0-47.8L84.49,27.83a47.93,47.93,0,0,1,41.4-23.9H275.07m0-1H125.89a48.81,48.81,0,0,0-42.27,24.4L9,156.53a48.79,48.79,0,0,0,0,48.8l74.59,129.2a48.81,48.81,0,0,0,42.27,24.4H275.07a48.81,48.81,0,0,0,42.27-24.4l74.59-129.2a48.79,48.79,0,0,0,0-48.8L317.34,27.33a48.81,48.81,0,0,0-42.27-24.4Z"/><path class="cls-3" d="M66,303.93l17.66,30.6a48.81,48.81,0,0,0,42.27,24.4H275.07a48.81,48.81,0,0,0,42.27-24.4L335,303.93Z"/><path d="M103.71,75.58l7.37,18.85H108.3l-2.06-5.68h-8l-2.11,5.68H93.6l7.34-18.85Zm1.74,11.06-3.14-8.79h0l-3.2,8.79Z"/><path d="M124.43,75.58a6.19,6.19,0,0,1,4.21,1.32,4.51,4.51,0,0,1,1.52,3.62,5.74,5.74,0,0,1-.78,3,4,4,0,0,1-2.49,1.76v.06a3.37,3.37,0,0,1,1.33.52,2.88,2.88,0,0,1,.82.89,4.18,4.18,0,0,1,.45,1.15,10.69,10.69,0,0,1,.22,1.32c0,.46.07.92.08,1.4a13,13,0,0,0,.13,1.4,10.29,10.29,0,0,0,.31,1.3,3.24,3.24,0,0,0,.59,1.1H128a1.6,1.6,0,0,1-.35-.79,8.91,8.91,0,0,1-.12-1.13c0-.41,0-.85,0-1.33a9.38,9.38,0,0,0-.16-1.4,12.43,12.43,0,0,0-.27-1.3,3,3,0,0,0-.5-1.09,2.52,2.52,0,0,0-.9-.74,3.39,3.39,0,0,0-1.47-.27h-6.13v8.05h-2.51V75.58Zm.53,8.55a3.78,3.78,0,0,0,1.39-.51,2.94,2.94,0,0,0,1-1,3.44,3.44,0,0,0,.35-1.68,3.37,3.37,0,0,0-.79-2.32,3.25,3.25,0,0,0-2.56-.9h-6.23v6.57h5.23A9.88,9.88,0,0,0,125,84.13Z"/><path d="M143.13,75.58h1.3c.47,0,.93,0,1.39.08a11.47,11.47,0,0,1,1.28.2,3.34,3.34,0,0,1,1,.4,5,5,0,0,1,1.57,1.53,4.25,4.25,0,0,1,.64,2.4,4.63,4.63,0,0,1-.72,2.6,4.3,4.3,0,0,1-2.08,1.62v.06a4.3,4.3,0,0,1,2.67,1.58,4.73,4.73,0,0,1,.93,3,5.55,5.55,0,0,1-.38,2,5,5,0,0,1-1.09,1.73,5.55,5.55,0,0,1-1.8,1.22,6.27,6.27,0,0,1-2.46.46h-9.11V75.58Zm.68,8.1a5,5,0,0,0,3.08-.75,2.73,2.73,0,0,0,.93-2.26,3.36,3.36,0,0,0-.31-1.58,2.22,2.22,0,0,0-.87-.9,3.64,3.64,0,0,0-1.28-.41,12.68,12.68,0,0,0-1.55-.09h-5v6Zm1.27,8.64a3.61,3.61,0,0,0,2.6-.9,3.3,3.3,0,0,0,.94-2.48,3,3,0,0,0-.35-1.53,2.65,2.65,0,0,0-.91-1,3.83,3.83,0,0,0-1.3-.5,7.81,7.81,0,0,0-1.54-.14H138.8v6.52Z"/><path d="M170,75.58v2.11H159.52v6h9.79V85.8h-9.79v6.52h10.59v2.11H157V75.58Z"/><path d="M178.39,75.58V94.43h-2.5V75.58Z"/><path d="M183.25,77.69V75.58h15.08v2.11H192V94.43h-2.5V77.69Z"/><path d="M212.49,78.15a5.39,5.39,0,0,0-3.21-.91,7.37,7.37,0,0,0-1.56.16,4.2,4.2,0,0,0-1.36.53,2.91,2.91,0,0,0-1,1,3.13,3.13,0,0,0-.35,1.54,2,2,0,0,0,.51,1.42,3.86,3.86,0,0,0,1.38.88,11.18,11.18,0,0,0,1.94.57c.72.15,1.45.31,2.2.49s1.48.38,2.2.62a7,7,0,0,1,2,1,4.68,4.68,0,0,1,1.37,1.53,4.77,4.77,0,0,1,.51,2.32,4.72,4.72,0,0,1-.67,2.58,5.63,5.63,0,0,1-1.73,1.74,7.4,7.4,0,0,1-2.36,1,11.6,11.6,0,0,1-2.6.3,10.82,10.82,0,0,1-3-.4,7.25,7.25,0,0,1-2.48-1.2,5.6,5.6,0,0,1-1.69-2.06,6.64,6.64,0,0,1-.62-3h2.37a4.22,4.22,0,0,0,.47,2A4.13,4.13,0,0,0,206,91.68a5,5,0,0,0,1.76.82,7.87,7.87,0,0,0,2.06.27,9.87,9.87,0,0,0,1.7-.16,5.19,5.19,0,0,0,1.54-.54,2.91,2.91,0,0,0,1.53-2.74,2.36,2.36,0,0,0-.51-1.58,3.65,3.65,0,0,0-1.37-1,9.82,9.82,0,0,0-1.94-.62l-2.21-.49c-.75-.17-1.48-.36-2.2-.58a8,8,0,0,1-1.94-.87,4.29,4.29,0,0,1-1.38-1.4,4.15,4.15,0,0,1-.51-2.15,5,5,0,0,1,.58-2.47,5.1,5.1,0,0,1,1.54-1.72,7,7,0,0,1,2.2-1,9.57,9.57,0,0,1,2.52-.33,10,10,0,0,1,2.69.34,6,6,0,0,1,2.18,1.09,5.22,5.22,0,0,1,1.48,1.86,6.7,6.7,0,0,1,.59,2.68H214A3.92,3.92,0,0,0,212.49,78.15Z"/><path d="M225.31,75.58V85l9.55-9.4h3.25l-7.94,7.6,8.26,11.25h-3.17l-6.81-9.53-3.14,2.93v6.6H222.8V75.58Z"/><path d="M251.92,75.58a6.21,6.21,0,0,1,4.21,1.32,4.55,4.55,0,0,1,1.52,3.62,5.74,5.74,0,0,1-.78,3,4,4,0,0,1-2.5,1.76v.06a3.42,3.42,0,0,1,1.34.52,3,3,0,0,1,.81.89,3.63,3.63,0,0,1,.45,1.15,10.67,10.67,0,0,1,.23,1.32c0,.46.06.92.08,1.4a10.87,10.87,0,0,0,.13,1.4,8.81,8.81,0,0,0,.3,1.3,3.1,3.1,0,0,0,.6,1.1h-2.8a1.53,1.53,0,0,1-.36-.79,8.91,8.91,0,0,1-.12-1.13c0-.41,0-.85-.05-1.33a9.38,9.38,0,0,0-.16-1.4c-.07-.45-.16-.89-.26-1.3a3.12,3.12,0,0,0-.5-1.09,2.52,2.52,0,0,0-.9-.74,3.4,3.4,0,0,0-1.48-.27h-6.12v8.05h-2.51V75.58Zm.53,8.55a3.73,3.73,0,0,0,1.38-.51,2.85,2.85,0,0,0,.95-1,3.43,3.43,0,0,0,.36-1.68,3.37,3.37,0,0,0-.79-2.32,3.26,3.26,0,0,0-2.56-.9h-6.23v6.57h5.22A10,10,0,0,0,252.45,84.13Z"/><path d="M276.79,75.58v2.11H266.28v6h9.79V85.8h-9.79v6.52h10.59v2.11h-13.1V75.58Z"/><path d="M285.16,75.58V94.43h-2.51V75.58Z"/><path d="M301.46,78.15a5.39,5.39,0,0,0-3.21-.91,7.37,7.37,0,0,0-1.56.16,4.2,4.2,0,0,0-1.36.53,2.91,2.91,0,0,0-.95,1,3,3,0,0,0-.36,1.54,2,2,0,0,0,.52,1.42,3.81,3.81,0,0,0,1.37.88,11.45,11.45,0,0,0,1.94.57c.72.15,1.46.31,2.21.49s1.48.38,2.2.62a6.89,6.89,0,0,1,1.94,1,4.57,4.57,0,0,1,1.37,1.53,4.66,4.66,0,0,1,.52,2.32,4.72,4.72,0,0,1-.67,2.58,5.63,5.63,0,0,1-1.73,1.74,7.46,7.46,0,0,1-2.37,1,11.53,11.53,0,0,1-2.6.3,10.8,10.8,0,0,1-3-.4,7.25,7.25,0,0,1-2.48-1.2,5.51,5.51,0,0,1-1.69-2.06,6.51,6.51,0,0,1-.62-3h2.37a4.34,4.34,0,0,0,.46,2A4.27,4.27,0,0,0,295,91.68a5,5,0,0,0,1.75.82,7.92,7.92,0,0,0,2.06.27,10,10,0,0,0,1.71-.16,5.3,5.3,0,0,0,1.54-.54,2.91,2.91,0,0,0,1.53-2.74,2.36,2.36,0,0,0-.51-1.58,3.68,3.68,0,0,0-1.38-1,9.82,9.82,0,0,0-1.94-.62l-2.2-.49c-.75-.17-1.48-.36-2.21-.58a8.17,8.17,0,0,1-1.94-.87A4.26,4.26,0,0,1,292,82.8a4.15,4.15,0,0,1-.51-2.15,4.9,4.9,0,0,1,2.12-4.19,6.85,6.85,0,0,1,2.19-1,9.68,9.68,0,0,1,2.52-.33,10.08,10.08,0,0,1,2.7.34,6,6,0,0,1,2.17,1.09,5.12,5.12,0,0,1,1.48,1.86,6.7,6.7,0,0,1,.6,2.68h-2.38A4,4,0,0,0,301.46,78.15Z"/><path d="M99.35,135v31.42H95.17V135Z"/><path d="M126.52,139.3a8.91,8.91,0,0,0-5.35-1.51,12.53,12.53,0,0,0-2.6.26,6.75,6.75,0,0,0-2.26.88,4.66,4.66,0,0,0-1.59,1.65,5.17,5.17,0,0,0-.59,2.57,3.29,3.29,0,0,0,.86,2.36,6.29,6.29,0,0,0,2.29,1.47,19.35,19.35,0,0,0,3.23,1c1.2.25,2.43.52,3.67.81s2.47.64,3.68,1a12.35,12.35,0,0,1,3.23,1.61,7.77,7.77,0,0,1,2.29,2.55,8.94,8.94,0,0,1-.26,8.16,9.23,9.23,0,0,1-2.89,2.91,12.5,12.5,0,0,1-3.93,1.63,19.6,19.6,0,0,1-4.34.5,18.39,18.39,0,0,1-5-.66,12.26,12.26,0,0,1-4.14-2A9.34,9.34,0,0,1,110,161a11,11,0,0,1-1-4.95h4a7.13,7.13,0,0,0,.77,3.41,6.9,6.9,0,0,0,2,2.35,8.56,8.56,0,0,0,2.92,1.37,13.61,13.61,0,0,0,3.43.44,15.25,15.25,0,0,0,2.84-.27,8.22,8.22,0,0,0,2.58-.9,5,5,0,0,0,1.84-1.74,5.11,5.11,0,0,0,.71-2.81,3.94,3.94,0,0,0-.86-2.64,6.2,6.2,0,0,0-2.29-1.65,16.78,16.78,0,0,0-3.23-1L120,151.8c-1.24-.28-2.47-.6-3.67-1a13.43,13.43,0,0,1-3.23-1.45,6.5,6.5,0,0,1-3.15-5.92,8.15,8.15,0,0,1,3.54-7,11.62,11.62,0,0,1,3.65-1.68,16.48,16.48,0,0,1,4.21-.55,16.8,16.8,0,0,1,4.48.58,10.13,10.13,0,0,1,3.63,1.8,8.76,8.76,0,0,1,2.47,3.1,11.15,11.15,0,0,1,1,4.47h-4A6.58,6.58,0,0,0,126.52,139.3Z"/><path d="M142.88,144.54a15.65,15.65,0,0,1,2.84-5.26,13.89,13.89,0,0,1,4.71-3.65,16.37,16.37,0,0,1,13.11,0,13.89,13.89,0,0,1,4.71,3.65,15.65,15.65,0,0,1,2.84,5.26,20.79,20.79,0,0,1,0,12.36,15.55,15.55,0,0,1-2.84,5.26,13.48,13.48,0,0,1-4.71,3.63,16.7,16.7,0,0,1-13.11,0,13.48,13.48,0,0,1-4.71-3.63,15.55,15.55,0,0,1-2.84-5.26,20.79,20.79,0,0,1,0-12.36Zm3.85,10.87a12.66,12.66,0,0,0,1.94,4.15,9.86,9.86,0,0,0,3.39,3,11.39,11.39,0,0,0,9.85,0,9.86,9.86,0,0,0,3.39-3,12.66,12.66,0,0,0,1.94-4.15,18.3,18.3,0,0,0,0-9.37,12.62,12.62,0,0,0-1.94-4.16,9.73,9.73,0,0,0-3.39-3,11.39,11.39,0,0,0-9.85,0,9.73,9.73,0,0,0-3.39,3,12.62,12.62,0,0,0-1.94,4.16,18.3,18.3,0,0,0,0,9.37Z"/><path d="M210.18,134.26l-13,32.87H194l13-32.87Z"/><path d="M238.21,135v31.42H234V135Z"/><path d="M271.34,135v3.52H253.83v10h16.32V152H253.83v10.87h17.64v3.52H249.65V135Z"/><path d="M299.92,139.46a9.68,9.68,0,0,0-5.7-1.67,10.27,10.27,0,0,0-4.82,1.05,9.54,9.54,0,0,0-3.3,2.84,12.31,12.31,0,0,0-1.91,4.07,18.2,18.2,0,0,0-.62,4.75,20.38,20.38,0,0,0,.62,5.08,12.16,12.16,0,0,0,1.91,4.18,9.42,9.42,0,0,0,3.32,2.84,10.41,10.41,0,0,0,4.84,1.06,9.25,9.25,0,0,0,3.68-.69,8.22,8.22,0,0,0,2.77-1.89,8.55,8.55,0,0,0,1.83-2.88,12,12,0,0,0,.79-3.61h4.18a14.3,14.3,0,0,1-4.09,9.24q-3.48,3.3-9.51,3.3a15.26,15.26,0,0,1-6.38-1.25,12.51,12.51,0,0,1-4.53-3.46,14.75,14.75,0,0,1-2.71-5.19,22.14,22.14,0,0,1-.9-6.42,20.84,20.84,0,0,1,1-6.45,15.43,15.43,0,0,1,2.84-5.26,13.3,13.3,0,0,1,4.66-3.54,15.11,15.11,0,0,1,6.4-1.3,16.17,16.17,0,0,1,4.67.66,12.56,12.56,0,0,1,3.91,1.94,10.7,10.7,0,0,1,2.86,3.19,11.68,11.68,0,0,1,1.5,4.42H303A7.74,7.74,0,0,0,299.92,139.46Z"/><path d="M94.36,195.46a20.55,20.55,0,0,1,3.81-7.13,17.21,17.21,0,0,1,6.37-4.75,21.67,21.67,0,0,1,8.83-1.7,22.14,22.14,0,0,1,7.25,1.19,18.82,18.82,0,0,1,6.06,3.4,16,16,0,0,1,4.15,5.47,16.72,16.72,0,0,1,1.55,7.28,17.51,17.51,0,0,1-1.35,7.21,18.94,18.94,0,0,1-3.56,5.35,30,30,0,0,1-5,4.23q-2.81,1.91-5.66,3.77t-5.55,4a25,25,0,0,0-4.75,5H132.7v9.66H92a23.25,23.25,0,0,1,1.38-8.4,22.35,22.35,0,0,1,3.77-6.37,32.31,32.31,0,0,1,5.58-5.19c2.14-1.58,4.39-3.19,6.77-4.83,1.22-.85,2.51-1.7,3.88-2.57a26,26,0,0,0,3.76-2.9,15,15,0,0,0,2.85-3.56,8.77,8.77,0,0,0,1.15-4.51,8.36,8.36,0,0,0-2.33-6.3,8.23,8.23,0,0,0-6-2.26,7.3,7.3,0,0,0-4.16,1.15,8.51,8.51,0,0,0-2.73,3,13.73,13.73,0,0,0-1.47,4.12,23.57,23.57,0,0,0-.43,4.47H93.25A26.9,26.9,0,0,1,94.36,195.46Z"/><path d="M138.4,195.46a20.53,20.53,0,0,1,3.8-7.13,17.24,17.24,0,0,1,6.38-4.75,21.67,21.67,0,0,1,8.83-1.7,22.08,22.08,0,0,1,7.24,1.19,18.72,18.72,0,0,1,6.06,3.4,16.2,16.2,0,0,1,4.16,5.47,16.72,16.72,0,0,1,1.55,7.28,17.51,17.51,0,0,1-1.35,7.21,19,19,0,0,1-3.57,5.35,29.26,29.26,0,0,1-5,4.23q-2.81,1.91-5.66,3.77t-5.54,4a24.75,24.75,0,0,0-4.75,5h26.21v9.66H136a23,23,0,0,1,1.39-8.4,22.33,22.33,0,0,1,3.76-6.37,32.67,32.67,0,0,1,5.58-5.19q3.21-2.37,6.78-4.83c1.21-.85,2.5-1.7,3.88-2.57a26.61,26.61,0,0,0,3.76-2.9,15.5,15.5,0,0,0,2.85-3.56,8.87,8.87,0,0,0,1.15-4.51,8.33,8.33,0,0,0-2.34-6.3,8.23,8.23,0,0,0-6-2.26,7.32,7.32,0,0,0-4.16,1.15,8.7,8.7,0,0,0-2.73,3,14,14,0,0,0-1.46,4.12,23.59,23.59,0,0,0-.44,4.47H137.29A26.38,26.38,0,0,1,138.4,195.46Z"/><path d="M182.43,195.46a20.55,20.55,0,0,1,3.81-7.13,17.21,17.21,0,0,1,6.37-4.75,21.7,21.7,0,0,1,8.83-1.7,22.14,22.14,0,0,1,7.25,1.19,18.82,18.82,0,0,1,6.06,3.4,16.2,16.2,0,0,1,4.16,5.47,16.86,16.86,0,0,1,1.54,7.28,17.51,17.51,0,0,1-1.35,7.21,18.73,18.73,0,0,1-3.56,5.35,30,30,0,0,1-5,4.23q-2.81,1.91-5.66,3.77t-5.55,4a25,25,0,0,0-4.75,5h26.22v9.66H180.06a23.25,23.25,0,0,1,1.38-8.4,22.35,22.35,0,0,1,3.77-6.37,32.31,32.31,0,0,1,5.58-5.19c2.14-1.58,4.39-3.19,6.77-4.83,1.22-.85,2.51-1.7,3.88-2.57a26,26,0,0,0,3.76-2.9,15,15,0,0,0,2.85-3.56,8.77,8.77,0,0,0,1.15-4.51,8.36,8.36,0,0,0-2.33-6.3,8.23,8.23,0,0,0-6-2.26,7.3,7.3,0,0,0-4.16,1.15,8.51,8.51,0,0,0-2.73,3,13.73,13.73,0,0,0-1.47,4.12,23.57,23.57,0,0,0-.43,4.47H181.33A26.64,26.64,0,0,1,182.43,195.46Z"/><path d="M244.37,205.4a12.13,12.13,0,0,0,3.84-.91,7.38,7.38,0,0,0,2.93-2.18,5.9,5.9,0,0,0,1.15-3.8,6.56,6.56,0,0,0-2.38-5.46,8.46,8.46,0,0,0-5.46-1.9A7.66,7.66,0,0,0,238,194a10.91,10.91,0,0,0-2.1,7.09H225.2a23.58,23.58,0,0,1,1.55-7.81,17.71,17.71,0,0,1,3.88-6.05,17,17,0,0,1,6-3.92,20.7,20.7,0,0,1,7.76-1.39,23.2,23.2,0,0,1,6.65,1,18.93,18.93,0,0,1,6,3,16.1,16.1,0,0,1,4.32,4.83,12.78,12.78,0,0,1,1.66,6.57,13.14,13.14,0,0,1-1.94,7.13,9.74,9.74,0,0,1-5.82,4.2v.16a12.07,12.07,0,0,1,7.21,4.43,13,13,0,0,1,2.61,8.16,16.79,16.79,0,0,1-6.26,13.47,20.08,20.08,0,0,1-6.57,3.48,26.74,26.74,0,0,1-16.28-.16,17.78,17.78,0,0,1-6.53-3.92,17.3,17.3,0,0,1-4.16-6.29,22.09,22.09,0,0,1-1.38-8.56h10.69a16,16,0,0,0,.71,4.24,10.38,10.38,0,0,0,1.82,3.48,8.59,8.59,0,0,0,3,2.34,9.58,9.58,0,0,0,4.24.87,9.26,9.26,0,0,0,6.41-2.34,9.45,9.45,0,0,0,1.39-11.2,7,7,0,0,0-3.13-2.42,13.16,13.16,0,0,0-4.16-.87c-1.5-.08-2.94-.12-4.31-.12V205.4A22.83,22.83,0,0,0,244.37,205.4Z"/><path d="M299.69,202a64.61,64.61,0,0,0-5.62,11.8,83,83,0,0,0-3.49,12.67,69.71,69.71,0,0,0-1.31,12h-12a75.47,75.47,0,0,1,5.82-23.92,84.91,84.91,0,0,1,12.79-21.07h-26.3V183h37.86v9.66A39.48,39.48,0,0,0,299.69,202Z"/><path class="cls-1" d="M112.9,336.37a4.38,4.38,0,0,0,1.31,1.54,5.85,5.85,0,0,0,1.92.88,9,9,0,0,0,2.28.28,11.71,11.71,0,0,0,1.71-.13,5.76,5.76,0,0,0,1.71-.52,3.78,3.78,0,0,0,1.33-1,2.65,2.65,0,0,0,.53-1.69,2.38,2.38,0,0,0-.7-1.79,5.72,5.72,0,0,0-1.85-1.14,19.27,19.27,0,0,0-2.58-.8c-1-.22-1.94-.48-2.93-.76a24.81,24.81,0,0,1-3-.93,10,10,0,0,1-2.58-1.42,6.68,6.68,0,0,1-1.85-2.19,6.6,6.6,0,0,1-.7-3.17,7.18,7.18,0,0,1,.89-3.63,8.08,8.08,0,0,1,2.34-2.56,10,10,0,0,1,3.27-1.52,13.84,13.84,0,0,1,3.65-.5,17,17,0,0,1,4.08.48,10,10,0,0,1,3.48,1.54,7.67,7.67,0,0,1,2.41,2.71,8.31,8.31,0,0,1,.89,4h-5.77a4.78,4.78,0,0,0-.51-2,3.53,3.53,0,0,0-1.16-1.26,5.08,5.08,0,0,0-1.66-.64,9.87,9.87,0,0,0-2-.19,7,7,0,0,0-1.44.15,3.88,3.88,0,0,0-1.31.53,3.26,3.26,0,0,0-1,.95,2.5,2.5,0,0,0-.38,1.45,2.46,2.46,0,0,0,.3,1.29,2.68,2.68,0,0,0,1.2.91,15.11,15.11,0,0,0,2.47.84l4.12,1.06c.51.1,1.21.29,2.11.55a10.35,10.35,0,0,1,2.68,1.27,8.41,8.41,0,0,1,2.3,2.34,6.7,6.7,0,0,1,1,3.74,8.31,8.31,0,0,1-.72,3.46,7.64,7.64,0,0,1-2.15,2.76,10.35,10.35,0,0,1-3.54,1.8,16.67,16.67,0,0,1-4.88.65,17.52,17.52,0,0,1-4.35-.55,11,11,0,0,1-3.72-1.73,8.57,8.57,0,0,1-2.57-3,9,9,0,0,1-.91-4.34h5.78A5,5,0,0,0,112.9,336.37Z"/><path class="cls-1" d="M145.24,315.93a11.2,11.2,0,0,1,4.33.74,8,8,0,0,1,2.9,2,7.44,7.44,0,0,1,1.64,2.77,10.42,10.42,0,0,1,0,6.44,7.44,7.44,0,0,1-1.64,2.79,7.86,7.86,0,0,1-2.9,2,11.39,11.39,0,0,1-4.33.74H139v9.73h-6V315.93ZM143.6,328.7a11.59,11.59,0,0,0,2-.16,4.42,4.42,0,0,0,1.67-.59,3.2,3.2,0,0,0,1.16-1.23,5.18,5.18,0,0,0,0-4.18,3.2,3.2,0,0,0-1.16-1.23,4.42,4.42,0,0,0-1.67-.59,12.7,12.7,0,0,0-2-.16H139v8.14Z"/><path class="cls-1" d="M158.08,324a13.71,13.71,0,0,1,2.62-4.54,12.08,12.08,0,0,1,4.2-3,14.88,14.88,0,0,1,11.23,0,12.09,12.09,0,0,1,4.18,3,13.71,13.71,0,0,1,2.62,4.54,17,17,0,0,1,.91,5.65,16.37,16.37,0,0,1-.91,5.53,13.24,13.24,0,0,1-2.62,4.46,12,12,0,0,1-4.18,3,15,15,0,0,1-11.23,0,11.93,11.93,0,0,1-4.2-3,13.24,13.24,0,0,1-2.62-4.46,16.37,16.37,0,0,1-.91-5.53A17,17,0,0,1,158.08,324Zm5.45,9a8.9,8.9,0,0,0,1.28,2.91,6.49,6.49,0,0,0,2.28,2.07,7.89,7.89,0,0,0,6.84,0,6.67,6.67,0,0,0,2.28-2.07,9.1,9.1,0,0,0,1.27-2.91,13.53,13.53,0,0,0,.4-3.32,14.63,14.63,0,0,0-.4-3.46,9.29,9.29,0,0,0-1.27-3,6.53,6.53,0,0,0-2.28-2.09,7.89,7.89,0,0,0-6.84,0,6.36,6.36,0,0,0-2.28,2.09,9.09,9.09,0,0,0-1.28,3,15.17,15.17,0,0,0-.4,3.46A14,14,0,0,0,163.53,332.93Z"/><path class="cls-1" d="M193.84,315.93l11.32,18.2h.08v-18.2h5.58v27.13h-6L193.57,324.9h-.07v18.16h-5.59V315.93Z"/><path class="cls-1" d="M220.63,336.37a4.28,4.28,0,0,0,1.31,1.54,5.85,5.85,0,0,0,1.92.88,9,9,0,0,0,2.28.28,11.71,11.71,0,0,0,1.71-.13,5.76,5.76,0,0,0,1.71-.52,3.78,3.78,0,0,0,1.33-1,2.65,2.65,0,0,0,.53-1.69,2.38,2.38,0,0,0-.7-1.79,5.83,5.83,0,0,0-1.85-1.14,19.27,19.27,0,0,0-2.58-.8c-1-.22-1.94-.48-2.93-.76a24.81,24.81,0,0,1-3-.93,10,10,0,0,1-2.58-1.42,6.68,6.68,0,0,1-1.85-2.19,6.6,6.6,0,0,1-.7-3.17,7.18,7.18,0,0,1,.89-3.63,8.08,8.08,0,0,1,2.34-2.56,10,10,0,0,1,3.27-1.52,13.84,13.84,0,0,1,3.65-.5,17.07,17.07,0,0,1,4.08.48A10.08,10.08,0,0,1,233,317.3a7.67,7.67,0,0,1,2.41,2.71,8.31,8.31,0,0,1,.89,4h-5.77a4.78,4.78,0,0,0-.51-2,3.53,3.53,0,0,0-1.16-1.26,5.17,5.17,0,0,0-1.66-.64,9.93,9.93,0,0,0-2-.19,7,7,0,0,0-1.44.15,3.8,3.8,0,0,0-1.31.53,3.26,3.26,0,0,0-1,.95,2.5,2.5,0,0,0-.38,1.45,2.46,2.46,0,0,0,.3,1.29,2.68,2.68,0,0,0,1.2.91A15.11,15.11,0,0,0,225,326l4.12,1.06c.51.1,1.21.29,2.11.55a10.35,10.35,0,0,1,2.68,1.27,8.41,8.41,0,0,1,2.3,2.34,6.7,6.7,0,0,1,1,3.74,8.16,8.16,0,0,1-.73,3.46,7.51,7.51,0,0,1-2.14,2.76,10.35,10.35,0,0,1-3.54,1.8,16.67,16.67,0,0,1-4.88.65,17.46,17.46,0,0,1-4.35-.55,11.12,11.12,0,0,1-3.73-1.73,8.65,8.65,0,0,1-2.56-3,9,9,0,0,1-.91-4.34h5.77A4.94,4.94,0,0,0,220.63,336.37Z"/><path class="cls-1" d="M240.46,324a13.89,13.89,0,0,1,2.62-4.54,12.27,12.27,0,0,1,4.2-3,14.88,14.88,0,0,1,11.23,0,12.09,12.09,0,0,1,4.18,3,13.73,13.73,0,0,1,2.63,4.54,17.21,17.21,0,0,1,.91,5.65,16.62,16.62,0,0,1-.91,5.53,13.27,13.27,0,0,1-2.63,4.46,12,12,0,0,1-4.18,3,15,15,0,0,1-11.23,0,12.12,12.12,0,0,1-4.2-3,13.41,13.41,0,0,1-2.62-4.46,16.62,16.62,0,0,1-.91-5.53A17.21,17.21,0,0,1,240.46,324Zm5.46,9a8.88,8.88,0,0,0,1.27,2.91,6.49,6.49,0,0,0,2.28,2.07,7.89,7.89,0,0,0,6.84,0,6.49,6.49,0,0,0,2.28-2.07,8.88,8.88,0,0,0,1.27-2.91,13.53,13.53,0,0,0,.4-3.32,14.63,14.63,0,0,0-.4-3.46,9.07,9.07,0,0,0-1.27-3,6.36,6.36,0,0,0-2.28-2.09,7.89,7.89,0,0,0-6.84,0,6.36,6.36,0,0,0-2.28,2.09,9.07,9.07,0,0,0-1.27,3,14.63,14.63,0,0,0-.4,3.46A13.53,13.53,0,0,0,245.92,332.93Z"/><path class="cls-1" d="M284.92,315.93a8.57,8.57,0,0,1,3.29.59,7.57,7.57,0,0,1,2.51,1.61,6.91,6.91,0,0,1,1.59,2.38,7.57,7.57,0,0,1,.56,2.9,8.2,8.2,0,0,1-1,4.15,6.36,6.36,0,0,1-3.29,2.66v.07a4.72,4.72,0,0,1,1.83.93,5.25,5.25,0,0,1,1.17,1.48,6.73,6.73,0,0,1,.67,1.89,15.78,15.78,0,0,1,.28,2.05c0,.43.05.94.08,1.52s.07,1.18.13,1.78a12.68,12.68,0,0,0,.31,1.73,4,4,0,0,0,.62,1.39h-6a10.64,10.64,0,0,1-.61-3.08c-.08-1.19-.19-2.33-.34-3.42a5.44,5.44,0,0,0-1.29-3.11,4.44,4.44,0,0,0-3.23-1h-6v10.6h-6V315.93ZM282.8,328.2a4.49,4.49,0,0,0,3.07-.91,3.77,3.77,0,0,0,1-3,3.59,3.59,0,0,0-1-2.87,4.54,4.54,0,0,0-3.07-.9h-6.54v7.64Z"/></svg>